<svg width="16" height="16" viewBox="0 0 16 16" fill="none" xmlns="http://www.w3.org/2000/svg">
<path fill-rule="evenodd" clip-rule="evenodd" d="M11.7656 5.83435C11.6156 5.68437 11.4121 5.60012 11.2 5.60012C10.9879 5.60012 10.7844 5.68437 10.6344 5.83435L8 8.46875L5.3656 5.83435C5.21471 5.68863 5.01263 5.60799 4.80288 5.60981C4.59312 5.61164 4.39247 5.69577 4.24414 5.8441C4.09581 5.99242 4.01168 6.19307 4.00986 6.40283C4.00803 6.61259 4.08867 6.81467 4.2344 6.96555L7.4344 10.1656C7.58442 10.3155 7.78786 10.3998 8 10.3998C8.21213 10.3998 8.41557 10.3155 8.5656 10.1656L11.7656 6.96555C11.9156 6.81553 11.9998 6.61208 11.9998 6.39995C11.9998 6.18782 11.9156 5.98437 11.7656 5.83435Z" fill="white"/>
</svg>
